<svg width="0" height="0" class="hidden">
	<symbol fill="none" xmlns="http://www.w3.org/2000/svg" viewBox="0 0 24 24" id="eye-closed">
		<path d="M9.76406 5.29519C10.4664 5.10724 11.2123 5 12 5C18.3636 5 22 12 22 12C22 12 21.171 13.5958 19.612 15.2635M4.34912 8.77822C2.8152 10.4307 2 12 2 12C2 12 5.63636 19 12 19C12.8021 19 13.5608 18.8888 14.2744 18.6944M11.5 14.9585C10.4158 14.7766 9.52883 14.0132 9.17071 13M12.5 9.04148C13.7563 9.25224 14.7478 10.2437 14.9585 11.5M3 3L21 21" stroke="#54ADFF" stroke-width="1.5" stroke-linecap="round" stroke-linejoin="round">
		</path>
	</symbol>
	<symbol xmlns="http://www.w3.org/2000/svg" fill="none" viewBox="0 0 24 24" id="eye-open">
		<path d="M2 12C2 12 5.63636 5 12 5C18.3636 5 22 12 22 12C22 12 18.3636 19 12 19C5.63636 19 2 12 2 12Z" stroke="#54ADFF" stroke-width="1.5" stroke-linecap="round" stroke-linejoin="round">
		</path>
		<path d="M12 15C13.6569 15 15 13.6569 15 12C15 10.3431 13.6569 9 12 9C10.3431 9 9 10.3431 9 12C9 13.6569 10.3431 15 12 15Z" stroke="#54ADFF" stroke-width="1.5" stroke-linecap="round" stroke-linejoin="round">
		</path>
	</symbol>
	<symbol xmlns="http://www.w3.org/2000/svg" fill="none" viewBox="0 0 24 24" id="cross">
		<path d="M19 5L5 19M5.00004 5L19 19" stroke="#F43F5E" stroke-width="1.5" stroke-linecap="round" stroke-linejoin="round" />
	</symbol>
</svg>
